<mxfile host="65bd71144e">
    <diagram id="GcnttdceZtBONtuD7_l8" name="Robot_Architecture">
        <mxGraphModel dx="1383" dy="239" grid="1" gridSize="10" guides="1" tooltips="1" connect="1" arrows="1" fold="1" page="1" pageScale="1" pageWidth="850" pageHeight="1100" math="0" shadow="0">
            <root>
                <mxCell id="0"/>
                <mxCell id="1" parent="0"/>
                <mxCell id="30" value="" style="whiteSpace=wrap;html=1;aspect=fixed;rounded=0;strokeColor=rgb(0, 0, 0);fontFamily=Helvetica;fontSize=12;fontColor=rgb(0, 0, 0);fillColor=rgb(255, 255, 255);" parent="1" vertex="1">
                    <mxGeometry x="-652.5" y="545" width="170" height="170" as="geometry"/>
                </mxCell>
                <mxCell id="32" value="" style="ellipse;whiteSpace=wrap;html=1;rounded=0;strokeColor=rgb(0, 0, 0);fontFamily=Helvetica;fontSize=12;fontColor=rgb(0, 0, 0);fillColor=rgb(255, 255, 255);rotation=-90;" parent="1" vertex="1">
                    <mxGeometry x="-505" y="545" width="50" height="20" as="geometry"/>
                </mxCell>
                <mxCell id="33" value="" style="ellipse;whiteSpace=wrap;html=1;rounded=0;strokeColor=rgb(0, 0, 0);fontFamily=Helvetica;fontSize=12;fontColor=rgb(0, 0, 0);fillColor=rgb(255, 255, 255);rotation=-90;" parent="1" vertex="1">
                    <mxGeometry x="-505" y="695" width="50" height="20" as="geometry"/>
                </mxCell>
                <mxCell id="34" value="" style="ellipse;whiteSpace=wrap;html=1;rounded=0;strokeColor=rgb(0, 0, 0);fontFamily=Helvetica;fontSize=12;fontColor=rgb(0, 0, 0);fillColor=rgb(255, 255, 255);rotation=-90;" parent="1" vertex="1">
                    <mxGeometry x="-680" y="695" width="50" height="20" as="geometry"/>
                </mxCell>
                <mxCell id="35" value="" style="ellipse;whiteSpace=wrap;html=1;rounded=0;strokeColor=rgb(0, 0, 0);fontFamily=Helvetica;fontSize=12;fontColor=rgb(0, 0, 0);fillColor=rgb(255, 255, 255);rotation=-90;" parent="1" vertex="1">
                    <mxGeometry x="-680" y="545" width="50" height="20" as="geometry"/>
                </mxCell>
                <mxCell id="t5e897vq1LeWbET_P8qy-188" style="edgeStyle=none;html=1;exitX=0;exitY=0.5;exitDx=0;exitDy=0;" parent="1" source="94" edge="1">
                    <mxGeometry relative="1" as="geometry">
                        <mxPoint x="-650" y="430.0000000000002" as="targetPoint"/>
                    </mxGeometry>
                </mxCell>
                <mxCell id="94" value="CAM" style="triangle;whiteSpace=wrap;html=1;rounded=0;strokeColor=rgb(0, 0, 0);fontFamily=Helvetica;fontSize=12;fontColor=rgb(0, 0, 0);fillColor=rgb(255, 255, 255);rotation=75;" parent="1" vertex="1">
                    <mxGeometry x="-658.75" y="389" width="72.5" height="245.31" as="geometry"/>
                </mxCell>
                <mxCell id="t5e897vq1LeWbET_P8qy-189" style="edgeStyle=none;html=1;exitX=0;exitY=0.5;exitDx=0;exitDy=0;" parent="1" source="28" edge="1">
                    <mxGeometry relative="1" as="geometry">
                        <mxPoint x="-490" y="430.0000000000002" as="targetPoint"/>
                    </mxGeometry>
                </mxCell>
                <mxCell id="28" value="CAM" style="triangle;whiteSpace=wrap;html=1;rounded=0;strokeColor=rgb(0, 0, 0);fontFamily=Helvetica;fontSize=12;fontColor=rgb(0, 0, 0);fillColor=rgb(255, 255, 255);rotation=105;" parent="1" vertex="1">
                    <mxGeometry x="-552.75" y="389" width="72.5" height="245.31" as="geometry"/>
                </mxCell>
                <mxCell id="t5e897vq1LeWbET_P8qy-181" value="GPS" style="rounded=0;whiteSpace=wrap;html=1;" parent="1" vertex="1">
                    <mxGeometry x="-617.5" y="600" width="40" height="30" as="geometry"/>
                </mxCell>
                <mxCell id="t5e897vq1LeWbET_P8qy-182" value="google map" style="rounded=0;whiteSpace=wrap;html=1;" parent="1" vertex="1">
                    <mxGeometry x="-577.5" y="600" width="60" height="30" as="geometry"/>
                </mxCell>
                <mxCell id="t5e897vq1LeWbET_P8qy-183" value="processor" style="rounded=0;whiteSpace=wrap;html=1;" parent="1" vertex="1">
                    <mxGeometry x="-617.5" y="630" width="100" height="30" as="geometry"/>
                </mxCell>
                <mxCell id="t5e897vq1LeWbET_P8qy-184" value="Motor" style="rounded=0;whiteSpace=wrap;html=1;" parent="1" vertex="1">
                    <mxGeometry x="-640" y="550" width="40" height="30" as="geometry"/>
                </mxCell>
                <mxCell id="t5e897vq1LeWbET_P8qy-185" value="Motor" style="rounded=0;whiteSpace=wrap;html=1;" parent="1" vertex="1">
                    <mxGeometry x="-540" y="550" width="40" height="30" as="geometry"/>
                </mxCell>
                <mxCell id="t5e897vq1LeWbET_P8qy-186" value="Motor" style="rounded=0;whiteSpace=wrap;html=1;" parent="1" vertex="1">
                    <mxGeometry x="-530" y="680" width="40" height="30" as="geometry"/>
                </mxCell>
                <mxCell id="t5e897vq1LeWbET_P8qy-187" value="Motor" style="rounded=0;whiteSpace=wrap;html=1;" parent="1" vertex="1">
                    <mxGeometry x="-640" y="680" width="40" height="30" as="geometry"/>
                </mxCell>
            </root>
        </mxGraphModel>
    </diagram>
    <diagram id="ns_G3y_VGr6E6YVyW7qt" name="Model_Architecture">
        <mxGraphModel dx="1234" dy="1577" grid="1" gridSize="10" guides="1" tooltips="1" connect="1" arrows="1" fold="1" page="1" pageScale="1" pageWidth="850" pageHeight="1100" math="0" shadow="0">
            <root>
                <mxCell id="0"/>
                <mxCell id="1" parent="0"/>
                <mxCell id="x9uyUGvjUb8i2pOHG1XZ-1" value="&lt;font style=&quot;font-size: 21px;&quot;&gt;Partie GPU&lt;/font&gt;" style="rounded=0;whiteSpace=wrap;html=1;dashed=1;dashPattern=12 12;fontFamily=Helvetica;fontSize=12;fillColor=#fad9d5;strokeColor=#ae4132;verticalAlign=bottom;" parent="1" vertex="1">
                    <mxGeometry x="20" y="-520" width="700" height="340" as="geometry"/>
                </mxCell>
                <mxCell id="x9uyUGvjUb8i2pOHG1XZ-2" value="" style="rounded=0;whiteSpace=wrap;html=1;fillColor=#fff2cc;strokeColor=#d6b656;" parent="1" vertex="1">
                    <mxGeometry x="130" y="-510" width="150" height="320" as="geometry"/>
                </mxCell>
                <mxCell id="x9uyUGvjUb8i2pOHG1XZ-3" value="" style="rounded=0;whiteSpace=wrap;html=1;strokeColor=#36393d;fontFamily=Helvetica;fontSize=17;fillColor=#ffff88;fillStyle=auto;" parent="1" vertex="1">
                    <mxGeometry x="150" y="-338.75" width="110" height="103.75" as="geometry"/>
                </mxCell>
                <mxCell id="x9uyUGvjUb8i2pOHG1XZ-4" value="" style="edgeStyle=none;html=1;entryX=0;entryY=0.5;entryDx=0;entryDy=0;" parent="1" source="x9uyUGvjUb8i2pOHG1XZ-5" target="x9uyUGvjUb8i2pOHG1XZ-11" edge="1">
                    <mxGeometry relative="1" as="geometry"/>
                </mxCell>
                <mxCell id="x9uyUGvjUb8i2pOHG1XZ-5" value="CAM 1" style="rounded=0;whiteSpace=wrap;html=1;fillColor=#fad7ac;strokeColor=#b46504;" parent="1" vertex="1">
                    <mxGeometry x="-60" y="-458.75" width="60" height="30" as="geometry"/>
                </mxCell>
                <mxCell id="x9uyUGvjUb8i2pOHG1XZ-6" value="" style="edgeStyle=none;html=1;entryX=0;entryY=0.5;entryDx=0;entryDy=0;" parent="1" source="x9uyUGvjUb8i2pOHG1XZ-7" target="x9uyUGvjUb8i2pOHG1XZ-9" edge="1">
                    <mxGeometry relative="1" as="geometry"/>
                </mxCell>
                <mxCell id="x9uyUGvjUb8i2pOHG1XZ-7" value="CAM 2" style="rounded=0;whiteSpace=wrap;html=1;fillColor=#fad7ac;strokeColor=#b46504;" parent="1" vertex="1">
                    <mxGeometry x="-60" y="-303.75" width="60" height="30" as="geometry"/>
                </mxCell>
                <mxCell id="x9uyUGvjUb8i2pOHG1XZ-8" style="edgeStyle=none;html=1;fontFamily=Helvetica;fontSize=12;fontColor=rgb(0, 0, 0);exitX=1;exitY=0.5;exitDx=0;exitDy=0;entryX=0;entryY=0.5;entryDx=0;entryDy=0;" parent="1" source="x9uyUGvjUb8i2pOHG1XZ-9" target="x9uyUGvjUb8i2pOHG1XZ-19" edge="1">
                    <mxGeometry relative="1" as="geometry">
                        <mxPoint x="130" y="-290" as="targetPoint"/>
                    </mxGeometry>
                </mxCell>
                <mxCell id="x9uyUGvjUb8i2pOHG1XZ-9" value="CAM processing" style="rounded=0;whiteSpace=wrap;html=1;fillColor=#fad9d5;strokeColor=#ae4132;" parent="1" vertex="1">
                    <mxGeometry x="35" y="-303.75" width="70" height="30" as="geometry"/>
                </mxCell>
                <mxCell id="x9uyUGvjUb8i2pOHG1XZ-10" style="edgeStyle=none;html=1;entryX=0;entryY=0.5;entryDx=0;entryDy=0;fontFamily=Helvetica;fontSize=12;fontColor=rgb(0, 0, 0);exitX=1;exitY=0.5;exitDx=0;exitDy=0;" parent="1" source="x9uyUGvjUb8i2pOHG1XZ-11" target="x9uyUGvjUb8i2pOHG1XZ-24" edge="1">
                    <mxGeometry relative="1" as="geometry">
                        <mxPoint x="130" y="-442.5" as="targetPoint"/>
                    </mxGeometry>
                </mxCell>
                <mxCell id="x9uyUGvjUb8i2pOHG1XZ-11" value="CAM processing" style="rounded=0;whiteSpace=wrap;html=1;fillColor=#fad9d5;strokeColor=#ae4132;" parent="1" vertex="1">
                    <mxGeometry x="35" y="-458.75" width="70" height="30" as="geometry"/>
                </mxCell>
                <mxCell id="x9uyUGvjUb8i2pOHG1XZ-12" style="edgeStyle=orthogonalEdgeStyle;html=1;entryX=0;entryY=0.5;entryDx=0;entryDy=0;" parent="1" source="x9uyUGvjUb8i2pOHG1XZ-13" target="x9uyUGvjUb8i2pOHG1XZ-41" edge="1">
                    <mxGeometry relative="1" as="geometry"/>
                </mxCell>
                <mxCell id="x9uyUGvjUb8i2pOHG1XZ-13" value="&lt;font style=&quot;font-size: 17px;&quot;&gt;Transformer&lt;br&gt;Vision&lt;br&gt;&lt;/font&gt;" style="rounded=0;whiteSpace=wrap;html=1;fillColor=#cdeb8b;strokeColor=#36393d;verticalAlign=top;" parent="1" vertex="1">
                    <mxGeometry x="310" y="-490" width="160" height="250" as="geometry"/>
                </mxCell>
                <mxCell id="x9uyUGvjUb8i2pOHG1XZ-14" value="&lt;font style=&quot;font-size: 17px;&quot;&gt;Controler&lt;/font&gt;" style="rounded=0;whiteSpace=wrap;html=1;fillColor=#cce5ff;strokeColor=#36393d;verticalAlign=top;" parent="1" vertex="1">
                    <mxGeometry x="810" y="-675" width="100" height="250" as="geometry"/>
                </mxCell>
                <mxCell id="x9uyUGvjUb8i2pOHG1XZ-15" value="&lt;font style=&quot;font-size: 17px;&quot;&gt;PID&lt;/font&gt;" style="rounded=0;whiteSpace=wrap;html=1;fillColor=#cce5ff;strokeColor=#36393d;" parent="1" vertex="1">
                    <mxGeometry x="810" y="-468.13" width="100" height="43.13" as="geometry"/>
                </mxCell>
                <mxCell id="x9uyUGvjUb8i2pOHG1XZ-16" value="&lt;font style=&quot;font-size: 17px;&quot;&gt;Speed protection&lt;/font&gt;" style="rounded=0;whiteSpace=wrap;html=1;fillColor=#cce5ff;strokeColor=#36393d;" parent="1" vertex="1">
                    <mxGeometry x="810" y="-513.13" width="100" height="45" as="geometry"/>
                </mxCell>
                <mxCell id="x9uyUGvjUb8i2pOHG1XZ-17" value="Classifier" style="rounded=0;whiteSpace=wrap;html=1;strokeColor=#36393d;fontFamily=Helvetica;fontSize=17;fillColor=#ffff88;fillStyle=auto;" parent="1" vertex="1">
                    <mxGeometry x="150" y="-272.5" width="110" height="37.5" as="geometry"/>
                </mxCell>
                <mxCell id="x9uyUGvjUb8i2pOHG1XZ-18" style="edgeStyle=orthogonalEdgeStyle;html=1;exitX=1;exitY=0.5;exitDx=0;exitDy=0;entryX=0;entryY=0.75;entryDx=0;entryDy=0;" parent="1" source="x9uyUGvjUb8i2pOHG1XZ-19" target="x9uyUGvjUb8i2pOHG1XZ-13" edge="1">
                    <mxGeometry relative="1" as="geometry"/>
                </mxCell>
                <mxCell id="x9uyUGvjUb8i2pOHG1XZ-19" value="Depth map" style="rounded=0;whiteSpace=wrap;html=1;strokeColor=#36393d;fontFamily=Helvetica;fontSize=17;fillColor=#ffff88;fillStyle=auto;" parent="1" vertex="1">
                    <mxGeometry x="150" y="-307.5" width="110" height="37.5" as="geometry"/>
                </mxCell>
                <mxCell id="x9uyUGvjUb8i2pOHG1XZ-20" value="segmentation" style="rounded=0;whiteSpace=wrap;html=1;strokeColor=#36393d;fontFamily=Helvetica;fontSize=17;fillColor=#ffff88;fillStyle=auto;" parent="1" vertex="1">
                    <mxGeometry x="150" y="-345" width="110" height="37.5" as="geometry"/>
                </mxCell>
                <mxCell id="x9uyUGvjUb8i2pOHG1XZ-21" value="" style="rounded=0;whiteSpace=wrap;html=1;strokeColor=#36393d;fontFamily=Helvetica;fontSize=17;fillColor=#ffff88;fillStyle=auto;" parent="1" vertex="1">
                    <mxGeometry x="150" y="-493.75" width="110" height="103.75" as="geometry"/>
                </mxCell>
                <mxCell id="x9uyUGvjUb8i2pOHG1XZ-22" value="Classifier" style="rounded=0;whiteSpace=wrap;html=1;strokeColor=#36393d;fontFamily=Helvetica;fontSize=17;fillColor=#ffff88;fillStyle=auto;" parent="1" vertex="1">
                    <mxGeometry x="150" y="-427.5" width="110" height="37.5" as="geometry"/>
                </mxCell>
                <mxCell id="x9uyUGvjUb8i2pOHG1XZ-23" style="edgeStyle=orthogonalEdgeStyle;html=1;exitX=1;exitY=0.5;exitDx=0;exitDy=0;entryX=0;entryY=0.25;entryDx=0;entryDy=0;" parent="1" source="x9uyUGvjUb8i2pOHG1XZ-24" target="x9uyUGvjUb8i2pOHG1XZ-13" edge="1">
                    <mxGeometry relative="1" as="geometry"/>
                </mxCell>
                <mxCell id="x9uyUGvjUb8i2pOHG1XZ-24" value="Depth map" style="rounded=0;whiteSpace=wrap;html=1;strokeColor=#36393d;fontFamily=Helvetica;fontSize=17;fillColor=#ffff88;fillStyle=auto;" parent="1" vertex="1">
                    <mxGeometry x="150" y="-462.5" width="110" height="37.5" as="geometry"/>
                </mxCell>
                <mxCell id="x9uyUGvjUb8i2pOHG1XZ-25" value="segmentation" style="rounded=0;whiteSpace=wrap;html=1;strokeColor=#36393d;fontFamily=Helvetica;fontSize=17;fillColor=#ffff88;fillStyle=auto;" parent="1" vertex="1">
                    <mxGeometry x="150" y="-500" width="110" height="37.5" as="geometry"/>
                </mxCell>
                <mxCell id="x9uyUGvjUb8i2pOHG1XZ-26" style="edgeStyle=orthogonalEdgeStyle;html=1;entryX=0;entryY=0.5;entryDx=0;entryDy=0;" parent="1" source="x9uyUGvjUb8i2pOHG1XZ-41" target="x9uyUGvjUb8i2pOHG1XZ-14" edge="1">
                    <mxGeometry relative="1" as="geometry"/>
                </mxCell>
                <mxCell id="x9uyUGvjUb8i2pOHG1XZ-27" value="" style="edgeStyle=orthogonalEdgeStyle;html=1;" parent="1" source="x9uyUGvjUb8i2pOHG1XZ-28" target="x9uyUGvjUb8i2pOHG1XZ-31" edge="1">
                    <mxGeometry relative="1" as="geometry"/>
                </mxCell>
                <mxCell id="x9uyUGvjUb8i2pOHG1XZ-28" value="GPS" style="rounded=0;whiteSpace=wrap;html=1;fillColor=#fad7ac;strokeColor=#b46504;" parent="1" vertex="1">
                    <mxGeometry x="230" y="-680.13" width="70" height="45" as="geometry"/>
                </mxCell>
                <mxCell id="x9uyUGvjUb8i2pOHG1XZ-29" style="edgeStyle=orthogonalEdgeStyle;html=1;" parent="1" source="x9uyUGvjUb8i2pOHG1XZ-31" edge="1">
                    <mxGeometry relative="1" as="geometry">
                        <mxPoint x="810" y="-610" as="targetPoint"/>
                        <Array as="points">
                            <mxPoint x="750" y="-660"/>
                            <mxPoint x="750" y="-610"/>
                        </Array>
                    </mxGeometry>
                </mxCell>
                <mxCell id="x9uyUGvjUb8i2pOHG1XZ-30" style="edgeStyle=orthogonalEdgeStyle;html=1;entryX=0.25;entryY=0;entryDx=0;entryDy=0;" parent="1" source="x9uyUGvjUb8i2pOHG1XZ-31" target="x9uyUGvjUb8i2pOHG1XZ-41" edge="1">
                    <mxGeometry relative="1" as="geometry">
                        <mxPoint x="580" y="-600" as="targetPoint"/>
                        <Array as="points">
                            <mxPoint x="570" y="-660"/>
                        </Array>
                    </mxGeometry>
                </mxCell>
                <mxCell id="x9uyUGvjUb8i2pOHG1XZ-31" value="&lt;font style=&quot;font-size: 17px;&quot;&gt;processing GPS&lt;/font&gt;" style="rounded=0;whiteSpace=wrap;html=1;fillColor=#cce5ff;strokeColor=#36393d;" parent="1" vertex="1">
                    <mxGeometry x="325" y="-680.13" width="100" height="45" as="geometry"/>
                </mxCell>
                <mxCell id="x9uyUGvjUb8i2pOHG1XZ-32" value="" style="edgeStyle=orthogonalEdgeStyle;html=1;" parent="1" source="x9uyUGvjUb8i2pOHG1XZ-33" target="x9uyUGvjUb8i2pOHG1XZ-36" edge="1">
                    <mxGeometry relative="1" as="geometry"/>
                </mxCell>
                <mxCell id="x9uyUGvjUb8i2pOHG1XZ-33" value="Google map" style="rounded=0;whiteSpace=wrap;html=1;fillColor=#fad7ac;strokeColor=#b46504;" parent="1" vertex="1">
                    <mxGeometry x="230" y="-613" width="70" height="45" as="geometry"/>
                </mxCell>
                <mxCell id="x9uyUGvjUb8i2pOHG1XZ-34" style="edgeStyle=orthogonalEdgeStyle;html=1;exitX=1;exitY=0.5;exitDx=0;exitDy=0;entryX=-0.003;entryY=0.398;entryDx=0;entryDy=0;entryPerimeter=0;" parent="1" source="x9uyUGvjUb8i2pOHG1XZ-36" target="x9uyUGvjUb8i2pOHG1XZ-14" edge="1">
                    <mxGeometry relative="1" as="geometry">
                        <Array as="points">
                            <mxPoint x="425" y="-590"/>
                            <mxPoint x="750" y="-590"/>
                            <mxPoint x="750" y="-576"/>
                        </Array>
                    </mxGeometry>
                </mxCell>
                <mxCell id="x9uyUGvjUb8i2pOHG1XZ-35" style="edgeStyle=orthogonalEdgeStyle;html=1;exitX=1;exitY=0.5;exitDx=0;exitDy=0;entryX=0.75;entryY=0;entryDx=0;entryDy=0;" parent="1" source="x9uyUGvjUb8i2pOHG1XZ-36" target="x9uyUGvjUb8i2pOHG1XZ-41" edge="1">
                    <mxGeometry relative="1" as="geometry">
                        <Array as="points">
                            <mxPoint x="650" y="-591"/>
                        </Array>
                    </mxGeometry>
                </mxCell>
                <mxCell id="x9uyUGvjUb8i2pOHG1XZ-36" value="&lt;span style=&quot;font-size: 17px;&quot;&gt;processing&amp;nbsp;&lt;br&gt;waypoints&lt;br&gt;&lt;/span&gt;" style="rounded=0;whiteSpace=wrap;html=1;fillColor=#cce5ff;strokeColor=#36393d;" parent="1" vertex="1">
                    <mxGeometry x="325" y="-613" width="100" height="45" as="geometry"/>
                </mxCell>
                <mxCell id="x9uyUGvjUb8i2pOHG1XZ-37" value="&lt;font style=&quot;font-size: 17px;&quot;&gt;waypoints manager&lt;/font&gt;" style="rounded=0;whiteSpace=wrap;html=1;fillColor=#cce5ff;strokeColor=#36393d;" parent="1" vertex="1">
                    <mxGeometry x="810" y="-558.13" width="100" height="45" as="geometry"/>
                </mxCell>
                <mxCell id="x9uyUGvjUb8i2pOHG1XZ-38" value="&lt;font style=&quot;font-size: 17px;&quot;&gt;sensor manager&lt;/font&gt;" style="rounded=0;whiteSpace=wrap;html=1;fillColor=#cce5ff;strokeColor=#36393d;" parent="1" vertex="1">
                    <mxGeometry x="810" y="-603.13" width="100" height="45" as="geometry"/>
                </mxCell>
                <mxCell id="x9uyUGvjUb8i2pOHG1XZ-39" value="modèle pré entraîner &lt;br&gt;ou bien CNN" style="text;html=1;align=center;verticalAlign=middle;resizable=0;points=[];autosize=1;strokeColor=none;fillColor=none;" parent="1" vertex="1">
                    <mxGeometry x="140" y="-230" width="130" height="40" as="geometry"/>
                </mxCell>
                <mxCell id="x9uyUGvjUb8i2pOHG1XZ-40" value="" style="group" parent="1" vertex="1" connectable="0">
                    <mxGeometry x="530" y="-490" width="160" height="250" as="geometry"/>
                </mxCell>
                <mxCell id="x9uyUGvjUb8i2pOHG1XZ-41" value="&lt;font style=&quot;font-size: 17px;&quot;&gt;Transformer&lt;br&gt;motion&lt;br&gt;&lt;/font&gt;" style="rounded=0;whiteSpace=wrap;html=1;fillColor=#CDEB8B;strokeColor=#36393d;verticalAlign=top;" parent="x9uyUGvjUb8i2pOHG1XZ-40" vertex="1">
                    <mxGeometry width="160" height="250" as="geometry"/>
                </mxCell>
                <mxCell id="x9uyUGvjUb8i2pOHG1XZ-42" value="&lt;font style=&quot;font-size: 17px;&quot;&gt;waypoints&lt;br&gt;projection&lt;br&gt;&lt;/font&gt;" style="rounded=0;whiteSpace=wrap;html=1;fillColor=#CDEB8B;strokeColor=#36393d;" parent="x9uyUGvjUb8i2pOHG1XZ-40" vertex="1">
                    <mxGeometry x="60" y="70" width="100" height="45" as="geometry"/>
                </mxCell>
                <mxCell id="x9uyUGvjUb8i2pOHG1XZ-43" value="&lt;font style=&quot;font-size: 17px;&quot;&gt;trajectory prediction&lt;/font&gt;" style="rounded=0;whiteSpace=wrap;html=1;fillColor=#CDEB8B;strokeColor=#000000;" parent="x9uyUGvjUb8i2pOHG1XZ-40" vertex="1">
                    <mxGeometry x="60" y="115" width="100" height="45" as="geometry"/>
                </mxCell>
                <mxCell id="x9uyUGvjUb8i2pOHG1XZ-44" value="&lt;font style=&quot;font-size: 17px;&quot;&gt;Warning prediction&lt;/font&gt;" style="rounded=0;whiteSpace=wrap;html=1;fillColor=#CDEB8B;strokeColor=#000000;" parent="x9uyUGvjUb8i2pOHG1XZ-40" vertex="1">
                    <mxGeometry x="60" y="160" width="100" height="45" as="geometry"/>
                </mxCell>
                <mxCell id="x9uyUGvjUb8i2pOHG1XZ-45" value="&lt;span style=&quot;font-size: 17px;&quot;&gt;motor manager&lt;/span&gt;" style="rounded=0;whiteSpace=wrap;html=1;fillColor=#CDEB8B;strokeColor=#000000;" parent="x9uyUGvjUb8i2pOHG1XZ-40" vertex="1">
                    <mxGeometry x="60" y="205" width="100" height="45" as="geometry"/>
                </mxCell>
            </root>
        </mxGraphModel>
    </diagram>
    <diagram id="KaWXyFydNr8YmYXZt74x" name="Test_Model">
        <mxGraphModel dx="2101" dy="1834" grid="1" gridSize="10" guides="1" tooltips="1" connect="1" arrows="1" fold="1" page="1" pageScale="1" pageWidth="850" pageHeight="1100" math="0" shadow="0">
            <root>
                <mxCell id="0"/>
                <mxCell id="1" parent="0"/>
                <mxCell id="h6tL4_8peM3gARhO-Vy0-1" value="&lt;font style=&quot;font-size: 21px;&quot;&gt;Partie GPU&lt;/font&gt;" style="rounded=0;whiteSpace=wrap;html=1;dashed=1;dashPattern=12 12;fontFamily=Helvetica;fontSize=12;fillColor=#fad9d5;strokeColor=#ae4132;verticalAlign=bottom;" parent="1" vertex="1">
                    <mxGeometry x="20" y="-520" width="700" height="340" as="geometry"/>
                </mxCell>
                <mxCell id="h6tL4_8peM3gARhO-Vy0-2" value="" style="rounded=0;whiteSpace=wrap;html=1;fillColor=#fff2cc;strokeColor=#d6b656;" parent="1" vertex="1">
                    <mxGeometry x="130" y="-510" width="150" height="320" as="geometry"/>
                </mxCell>
                <mxCell id="h6tL4_8peM3gARhO-Vy0-3" value="" style="rounded=0;whiteSpace=wrap;html=1;strokeColor=#36393d;fontFamily=Helvetica;fontSize=17;fillColor=#ffff88;fillStyle=auto;" parent="1" vertex="1">
                    <mxGeometry x="150" y="-338.75" width="110" height="103.75" as="geometry"/>
                </mxCell>
                <mxCell id="h6tL4_8peM3gARhO-Vy0-4" value="" style="edgeStyle=none;html=1;entryX=0;entryY=0.5;entryDx=0;entryDy=0;" parent="1" source="h6tL4_8peM3gARhO-Vy0-5" target="h6tL4_8peM3gARhO-Vy0-11" edge="1">
                    <mxGeometry relative="1" as="geometry"/>
                </mxCell>
                <mxCell id="h6tL4_8peM3gARhO-Vy0-5" value="CAM 1" style="rounded=0;whiteSpace=wrap;html=1;fillColor=#fad7ac;strokeColor=#b46504;" parent="1" vertex="1">
                    <mxGeometry x="-60" y="-458.75" width="60" height="30" as="geometry"/>
                </mxCell>
                <mxCell id="h6tL4_8peM3gARhO-Vy0-6" value="" style="edgeStyle=none;html=1;entryX=0;entryY=0.5;entryDx=0;entryDy=0;" parent="1" source="h6tL4_8peM3gARhO-Vy0-7" target="h6tL4_8peM3gARhO-Vy0-9" edge="1">
                    <mxGeometry relative="1" as="geometry"/>
                </mxCell>
                <mxCell id="h6tL4_8peM3gARhO-Vy0-7" value="CAM 2" style="rounded=0;whiteSpace=wrap;html=1;fillColor=#fad7ac;strokeColor=#b46504;" parent="1" vertex="1">
                    <mxGeometry x="-60" y="-303.75" width="60" height="30" as="geometry"/>
                </mxCell>
                <mxCell id="h6tL4_8peM3gARhO-Vy0-8" style="edgeStyle=none;html=1;fontFamily=Helvetica;fontSize=12;fontColor=rgb(0, 0, 0);exitX=1;exitY=0.5;exitDx=0;exitDy=0;entryX=0;entryY=0.5;entryDx=0;entryDy=0;" parent="1" source="h6tL4_8peM3gARhO-Vy0-9" target="h6tL4_8peM3gARhO-Vy0-19" edge="1">
                    <mxGeometry relative="1" as="geometry">
                        <mxPoint x="130" y="-290" as="targetPoint"/>
                    </mxGeometry>
                </mxCell>
                <mxCell id="h6tL4_8peM3gARhO-Vy0-9" value="CAM processing" style="rounded=0;whiteSpace=wrap;html=1;fillColor=#fad9d5;strokeColor=#ae4132;" parent="1" vertex="1">
                    <mxGeometry x="35" y="-303.75" width="70" height="30" as="geometry"/>
                </mxCell>
                <mxCell id="h6tL4_8peM3gARhO-Vy0-10" style="edgeStyle=none;html=1;entryX=0;entryY=0.5;entryDx=0;entryDy=0;fontFamily=Helvetica;fontSize=12;fontColor=rgb(0, 0, 0);exitX=1;exitY=0.5;exitDx=0;exitDy=0;" parent="1" source="h6tL4_8peM3gARhO-Vy0-11" target="h6tL4_8peM3gARhO-Vy0-24" edge="1">
                    <mxGeometry relative="1" as="geometry">
                        <mxPoint x="130" y="-442.5" as="targetPoint"/>
                    </mxGeometry>
                </mxCell>
                <mxCell id="h6tL4_8peM3gARhO-Vy0-11" value="CAM processing" style="rounded=0;whiteSpace=wrap;html=1;fillColor=#fad9d5;strokeColor=#ae4132;" parent="1" vertex="1">
                    <mxGeometry x="35" y="-458.75" width="70" height="30" as="geometry"/>
                </mxCell>
                <mxCell id="h6tL4_8peM3gARhO-Vy0-12" style="edgeStyle=orthogonalEdgeStyle;html=1;entryX=0;entryY=0.5;entryDx=0;entryDy=0;" parent="1" source="h6tL4_8peM3gARhO-Vy0-13" target="h6tL4_8peM3gARhO-Vy0-41" edge="1">
                    <mxGeometry relative="1" as="geometry"/>
                </mxCell>
                <mxCell id="h6tL4_8peM3gARhO-Vy0-13" value="&lt;font style=&quot;font-size: 17px;&quot;&gt;Transformer&lt;br&gt;Vision&lt;br&gt;&lt;/font&gt;" style="rounded=0;whiteSpace=wrap;html=1;fillColor=#cdeb8b;strokeColor=#36393d;verticalAlign=top;" parent="1" vertex="1">
                    <mxGeometry x="310" y="-490" width="160" height="250" as="geometry"/>
                </mxCell>
                <mxCell id="h6tL4_8peM3gARhO-Vy0-14" value="&lt;font style=&quot;font-size: 17px;&quot;&gt;Controler&lt;/font&gt;" style="rounded=0;whiteSpace=wrap;html=1;fillColor=#cce5ff;strokeColor=#36393d;verticalAlign=top;" parent="1" vertex="1">
                    <mxGeometry x="810" y="-675" width="100" height="250" as="geometry"/>
                </mxCell>
                <mxCell id="h6tL4_8peM3gARhO-Vy0-15" value="&lt;font style=&quot;font-size: 17px;&quot;&gt;PID&lt;/font&gt;" style="rounded=0;whiteSpace=wrap;html=1;fillColor=#cce5ff;strokeColor=#36393d;" parent="1" vertex="1">
                    <mxGeometry x="810" y="-468.13" width="100" height="43.13" as="geometry"/>
                </mxCell>
                <mxCell id="h6tL4_8peM3gARhO-Vy0-16" value="&lt;font style=&quot;font-size: 17px;&quot;&gt;Speed protection&lt;/font&gt;" style="rounded=0;whiteSpace=wrap;html=1;fillColor=#cce5ff;strokeColor=#36393d;" parent="1" vertex="1">
                    <mxGeometry x="810" y="-513.13" width="100" height="45" as="geometry"/>
                </mxCell>
                <mxCell id="h6tL4_8peM3gARhO-Vy0-17" value="Classifier" style="rounded=0;whiteSpace=wrap;html=1;strokeColor=#36393d;fontFamily=Helvetica;fontSize=17;fillColor=#ffff88;fillStyle=auto;" parent="1" vertex="1">
                    <mxGeometry x="150" y="-272.5" width="110" height="37.5" as="geometry"/>
                </mxCell>
                <mxCell id="h6tL4_8peM3gARhO-Vy0-18" style="edgeStyle=orthogonalEdgeStyle;html=1;exitX=1;exitY=0.5;exitDx=0;exitDy=0;entryX=0;entryY=0.75;entryDx=0;entryDy=0;" parent="1" source="h6tL4_8peM3gARhO-Vy0-19" target="h6tL4_8peM3gARhO-Vy0-13" edge="1">
                    <mxGeometry relative="1" as="geometry"/>
                </mxCell>
                <mxCell id="h6tL4_8peM3gARhO-Vy0-19" value="Depth map" style="rounded=0;whiteSpace=wrap;html=1;strokeColor=#36393d;fontFamily=Helvetica;fontSize=17;fillColor=#ffff88;fillStyle=auto;" parent="1" vertex="1">
                    <mxGeometry x="150" y="-307.5" width="110" height="37.5" as="geometry"/>
                </mxCell>
                <mxCell id="h6tL4_8peM3gARhO-Vy0-20" value="segmentation" style="rounded=0;whiteSpace=wrap;html=1;strokeColor=#36393d;fontFamily=Helvetica;fontSize=17;fillColor=#ffff88;fillStyle=auto;" parent="1" vertex="1">
                    <mxGeometry x="150" y="-345" width="110" height="37.5" as="geometry"/>
                </mxCell>
                <mxCell id="h6tL4_8peM3gARhO-Vy0-21" value="" style="rounded=0;whiteSpace=wrap;html=1;strokeColor=#36393d;fontFamily=Helvetica;fontSize=17;fillColor=#ffff88;fillStyle=auto;" parent="1" vertex="1">
                    <mxGeometry x="150" y="-493.75" width="110" height="103.75" as="geometry"/>
                </mxCell>
                <mxCell id="h6tL4_8peM3gARhO-Vy0-22" value="Classifier" style="rounded=0;whiteSpace=wrap;html=1;strokeColor=#36393d;fontFamily=Helvetica;fontSize=17;fillColor=#ffff88;fillStyle=auto;" parent="1" vertex="1">
                    <mxGeometry x="150" y="-427.5" width="110" height="37.5" as="geometry"/>
                </mxCell>
                <mxCell id="h6tL4_8peM3gARhO-Vy0-23" style="edgeStyle=orthogonalEdgeStyle;html=1;exitX=1;exitY=0.5;exitDx=0;exitDy=0;entryX=0;entryY=0.25;entryDx=0;entryDy=0;" parent="1" source="h6tL4_8peM3gARhO-Vy0-24" target="h6tL4_8peM3gARhO-Vy0-13" edge="1">
                    <mxGeometry relative="1" as="geometry"/>
                </mxCell>
                <mxCell id="h6tL4_8peM3gARhO-Vy0-24" value="Depth map" style="rounded=0;whiteSpace=wrap;html=1;strokeColor=#36393d;fontFamily=Helvetica;fontSize=17;fillColor=#ffff88;fillStyle=auto;" parent="1" vertex="1">
                    <mxGeometry x="150" y="-462.5" width="110" height="37.5" as="geometry"/>
                </mxCell>
                <mxCell id="h6tL4_8peM3gARhO-Vy0-25" value="segmentation" style="rounded=0;whiteSpace=wrap;html=1;strokeColor=#36393d;fontFamily=Helvetica;fontSize=17;fillColor=#ffff88;fillStyle=auto;" parent="1" vertex="1">
                    <mxGeometry x="150" y="-500" width="110" height="37.5" as="geometry"/>
                </mxCell>
                <mxCell id="h6tL4_8peM3gARhO-Vy0-26" style="edgeStyle=orthogonalEdgeStyle;html=1;entryX=0;entryY=0.5;entryDx=0;entryDy=0;" parent="1" source="h6tL4_8peM3gARhO-Vy0-41" target="h6tL4_8peM3gARhO-Vy0-14" edge="1">
                    <mxGeometry relative="1" as="geometry"/>
                </mxCell>
                <mxCell id="h6tL4_8peM3gARhO-Vy0-27" value="" style="edgeStyle=orthogonalEdgeStyle;html=1;" parent="1" source="h6tL4_8peM3gARhO-Vy0-28" target="h6tL4_8peM3gARhO-Vy0-31" edge="1">
                    <mxGeometry relative="1" as="geometry"/>
                </mxCell>
                <mxCell id="h6tL4_8peM3gARhO-Vy0-28" value="GPS" style="rounded=0;whiteSpace=wrap;html=1;fillColor=#fad7ac;strokeColor=#b46504;" parent="1" vertex="1">
                    <mxGeometry x="230" y="-680.13" width="70" height="45" as="geometry"/>
                </mxCell>
                <mxCell id="h6tL4_8peM3gARhO-Vy0-29" style="edgeStyle=orthogonalEdgeStyle;html=1;" parent="1" source="h6tL4_8peM3gARhO-Vy0-31" edge="1">
                    <mxGeometry relative="1" as="geometry">
                        <mxPoint x="810" y="-610" as="targetPoint"/>
                        <Array as="points">
                            <mxPoint x="750" y="-660"/>
                            <mxPoint x="750" y="-610"/>
                        </Array>
                    </mxGeometry>
                </mxCell>
                <mxCell id="h6tL4_8peM3gARhO-Vy0-30" style="edgeStyle=orthogonalEdgeStyle;html=1;entryX=0.25;entryY=0;entryDx=0;entryDy=0;" parent="1" source="h6tL4_8peM3gARhO-Vy0-31" target="h6tL4_8peM3gARhO-Vy0-41" edge="1">
                    <mxGeometry relative="1" as="geometry">
                        <mxPoint x="580" y="-600" as="targetPoint"/>
                        <Array as="points">
                            <mxPoint x="570" y="-660"/>
                        </Array>
                    </mxGeometry>
                </mxCell>
                <mxCell id="h6tL4_8peM3gARhO-Vy0-31" value="&lt;font style=&quot;font-size: 17px;&quot;&gt;processing GPS&lt;/font&gt;" style="rounded=0;whiteSpace=wrap;html=1;fillColor=#cce5ff;strokeColor=#36393d;" parent="1" vertex="1">
                    <mxGeometry x="325" y="-680.13" width="100" height="45" as="geometry"/>
                </mxCell>
                <mxCell id="h6tL4_8peM3gARhO-Vy0-32" value="" style="edgeStyle=orthogonalEdgeStyle;html=1;" parent="1" source="h6tL4_8peM3gARhO-Vy0-33" target="h6tL4_8peM3gARhO-Vy0-36" edge="1">
                    <mxGeometry relative="1" as="geometry"/>
                </mxCell>
                <mxCell id="h6tL4_8peM3gARhO-Vy0-33" value="Google map" style="rounded=0;whiteSpace=wrap;html=1;fillColor=#fad7ac;strokeColor=#b46504;" parent="1" vertex="1">
                    <mxGeometry x="230" y="-613" width="70" height="45" as="geometry"/>
                </mxCell>
                <mxCell id="h6tL4_8peM3gARhO-Vy0-34" style="edgeStyle=orthogonalEdgeStyle;html=1;exitX=1;exitY=0.5;exitDx=0;exitDy=0;entryX=-0.003;entryY=0.398;entryDx=0;entryDy=0;entryPerimeter=0;" parent="1" source="h6tL4_8peM3gARhO-Vy0-36" target="h6tL4_8peM3gARhO-Vy0-14" edge="1">
                    <mxGeometry relative="1" as="geometry">
                        <Array as="points">
                            <mxPoint x="425" y="-590"/>
                            <mxPoint x="750" y="-590"/>
                            <mxPoint x="750" y="-576"/>
                        </Array>
                    </mxGeometry>
                </mxCell>
                <mxCell id="h6tL4_8peM3gARhO-Vy0-35" style="edgeStyle=orthogonalEdgeStyle;html=1;exitX=1;exitY=0.5;exitDx=0;exitDy=0;entryX=0.75;entryY=0;entryDx=0;entryDy=0;" parent="1" source="h6tL4_8peM3gARhO-Vy0-36" target="h6tL4_8peM3gARhO-Vy0-41" edge="1">
                    <mxGeometry relative="1" as="geometry">
                        <Array as="points">
                            <mxPoint x="650" y="-591"/>
                        </Array>
                    </mxGeometry>
                </mxCell>
                <mxCell id="h6tL4_8peM3gARhO-Vy0-36" value="&lt;span style=&quot;font-size: 17px;&quot;&gt;processing&amp;nbsp;&lt;br&gt;waypoints&lt;br&gt;&lt;/span&gt;" style="rounded=0;whiteSpace=wrap;html=1;fillColor=#cce5ff;strokeColor=#36393d;" parent="1" vertex="1">
                    <mxGeometry x="325" y="-613" width="100" height="45" as="geometry"/>
                </mxCell>
                <mxCell id="h6tL4_8peM3gARhO-Vy0-37" value="&lt;font style=&quot;font-size: 17px;&quot;&gt;waypoints manager&lt;/font&gt;" style="rounded=0;whiteSpace=wrap;html=1;fillColor=#cce5ff;strokeColor=#36393d;" parent="1" vertex="1">
                    <mxGeometry x="810" y="-558.13" width="100" height="45" as="geometry"/>
                </mxCell>
                <mxCell id="h6tL4_8peM3gARhO-Vy0-38" value="&lt;font style=&quot;font-size: 17px;&quot;&gt;sensor manager&lt;/font&gt;" style="rounded=0;whiteSpace=wrap;html=1;fillColor=#cce5ff;strokeColor=#36393d;" parent="1" vertex="1">
                    <mxGeometry x="810" y="-603.13" width="100" height="45" as="geometry"/>
                </mxCell>
                <mxCell id="h6tL4_8peM3gARhO-Vy0-39" value="modèle pré entraîner &lt;br&gt;ou bien CNN" style="text;html=1;align=center;verticalAlign=middle;resizable=0;points=[];autosize=1;strokeColor=none;fillColor=none;" parent="1" vertex="1">
                    <mxGeometry x="140" y="-230" width="130" height="40" as="geometry"/>
                </mxCell>
                <mxCell id="h6tL4_8peM3gARhO-Vy0-40" value="" style="group" parent="1" vertex="1" connectable="0">
                    <mxGeometry x="530" y="-490" width="160" height="250" as="geometry"/>
                </mxCell>
                <mxCell id="h6tL4_8peM3gARhO-Vy0-41" value="&lt;font style=&quot;font-size: 17px;&quot;&gt;Transformer&lt;br&gt;motion&lt;br&gt;&lt;/font&gt;" style="rounded=0;whiteSpace=wrap;html=1;fillColor=#CDEB8B;strokeColor=#36393d;verticalAlign=top;" parent="h6tL4_8peM3gARhO-Vy0-40" vertex="1">
                    <mxGeometry width="160" height="250" as="geometry"/>
                </mxCell>
                <mxCell id="h6tL4_8peM3gARhO-Vy0-42" value="&lt;font style=&quot;font-size: 17px;&quot;&gt;waypoints&lt;br&gt;projection&lt;br&gt;&lt;/font&gt;" style="rounded=0;whiteSpace=wrap;html=1;fillColor=#CDEB8B;strokeColor=#36393d;" parent="h6tL4_8peM3gARhO-Vy0-40" vertex="1">
                    <mxGeometry x="60" y="70" width="100" height="45" as="geometry"/>
                </mxCell>
                <mxCell id="h6tL4_8peM3gARhO-Vy0-43" value="&lt;font style=&quot;font-size: 17px;&quot;&gt;trajectory prediction&lt;/font&gt;" style="rounded=0;whiteSpace=wrap;html=1;fillColor=#CDEB8B;strokeColor=#000000;" parent="h6tL4_8peM3gARhO-Vy0-40" vertex="1">
                    <mxGeometry x="60" y="115" width="100" height="45" as="geometry"/>
                </mxCell>
                <mxCell id="h6tL4_8peM3gARhO-Vy0-44" value="&lt;font style=&quot;font-size: 17px;&quot;&gt;Warning prediction&lt;/font&gt;" style="rounded=0;whiteSpace=wrap;html=1;fillColor=#CDEB8B;strokeColor=#000000;" parent="h6tL4_8peM3gARhO-Vy0-40" vertex="1">
                    <mxGeometry x="60" y="160" width="100" height="45" as="geometry"/>
                </mxCell>
                <mxCell id="h6tL4_8peM3gARhO-Vy0-45" value="&lt;span style=&quot;font-size: 17px;&quot;&gt;motor manager&lt;/span&gt;" style="rounded=0;whiteSpace=wrap;html=1;fillColor=#CDEB8B;strokeColor=#000000;" parent="h6tL4_8peM3gARhO-Vy0-40" vertex="1">
                    <mxGeometry x="60" y="205" width="100" height="45" as="geometry"/>
                </mxCell>
                <mxCell id="h6tL4_8peM3gARhO-Vy0-47" value="&lt;font style=&quot;font-size: 17px;&quot;&gt;future waypoints&lt;/font&gt;" style="rounded=0;whiteSpace=wrap;html=1;fillColor=#CDEB8B;strokeColor=#000000;" parent="1" vertex="1">
                    <mxGeometry x="910" y="-215" width="100" height="45" as="geometry"/>
                </mxCell>
                <mxCell id="h6tL4_8peM3gARhO-Vy0-48" value="&lt;font style=&quot;font-size: 17px;&quot;&gt;Warning prediction&lt;/font&gt;" style="rounded=0;whiteSpace=wrap;html=1;fillColor=#CDEB8B;strokeColor=#000000;" parent="1" vertex="1">
                    <mxGeometry x="910" y="-170" width="100" height="45" as="geometry"/>
                </mxCell>
                <mxCell id="h6tL4_8peM3gARhO-Vy0-49" value="&lt;span style=&quot;font-size: 17px;&quot;&gt;motor manager&lt;/span&gt;" style="rounded=0;whiteSpace=wrap;html=1;fillColor=#CDEB8B;strokeColor=#000000;" parent="1" vertex="1">
                    <mxGeometry x="910" y="-125" width="100" height="45" as="geometry"/>
                </mxCell>
                <mxCell id="8osvGhAReLTXi6HrUppF-4" value="&lt;span style=&quot;font-size: 17px;&quot;&gt;semantic segmentation :&lt;br&gt;&lt;span style=&quot;white-space: pre;&quot;&gt;&#x9;&lt;/span&gt;Road pedestian / car all&amp;nbsp;&lt;br&gt;&lt;br&gt;&amp;nbsp;&lt;br&gt;&lt;/span&gt;" style="rounded=0;whiteSpace=wrap;html=1;align=left;verticalAlign=top;" parent="1" vertex="1">
                    <mxGeometry x="-680" y="-318.75" width="330" height="48.75" as="geometry"/>
                </mxCell>
                <mxCell id="8osvGhAReLTXi6HrUppF-3" value="&lt;span style=&quot;font-size: 17px;&quot;&gt;Lane following&amp;nbsp;&amp;nbsp;&lt;/span&gt;&lt;br style=&quot;border-color: var(--border-color); font-size: 17px;&quot;&gt;&lt;span style=&quot;font-size: 17px;&quot;&gt;&amp;nbsp;&lt;/span&gt;" style="rounded=0;whiteSpace=wrap;html=1;align=left;verticalAlign=top;" parent="1" vertex="1">
                    <mxGeometry x="-680" y="-248.75" width="330" height="88.75" as="geometry"/>
                </mxCell>
                <mxCell id="8osvGhAReLTXi6HrUppF-9" value="&lt;span style=&quot;font-size: 17px;&quot;&gt;Faire avec des données inpliquant pas le robot avec les capteurs dessus (pas de simulation possible)&lt;/span&gt;" style="rounded=0;whiteSpace=wrap;html=1;align=left;verticalAlign=top;" parent="1" vertex="1">
                    <mxGeometry x="-770" y="-90" width="450" height="88.75" as="geometry"/>
                </mxCell>
                <mxCell id="BjObMWMa2jBqmc5UA8cn-8" value="" style="group" vertex="1" connectable="0" parent="1">
                    <mxGeometry x="30" y="-120" width="280" height="240" as="geometry"/>
                </mxCell>
                <mxCell id="BjObMWMa2jBqmc5UA8cn-1" value="&lt;span style=&quot;font-size: 15px;&quot;&gt;Hydranet&lt;/span&gt;" style="rounded=0;whiteSpace=wrap;html=1;fillColor=#fff2cc;strokeColor=#d6b656;verticalAlign=top;labelPosition=center;verticalLabelPosition=middle;align=center;labelBackgroundColor=none;labelBorderColor=default;" vertex="1" parent="BjObMWMa2jBqmc5UA8cn-8">
                    <mxGeometry width="280" height="240" as="geometry"/>
                </mxCell>
                <mxCell id="BjObMWMa2jBqmc5UA8cn-2" value="semantic segmentation" style="rounded=0;whiteSpace=wrap;html=1;strokeColor=#36393d;fontFamily=Helvetica;fontSize=17;fillColor=#ffff88;fillStyle=auto;" vertex="1" parent="BjObMWMa2jBqmc5UA8cn-8">
                    <mxGeometry x="100" y="30" width="170" height="40" as="geometry"/>
                </mxCell>
                <mxCell id="BjObMWMa2jBqmc5UA8cn-3" value="Light Traffic (LT)" style="rounded=0;whiteSpace=wrap;html=1;strokeColor=#36393d;fontFamily=Helvetica;fontSize=17;fillColor=#ffff88;fillStyle=auto;" vertex="1" parent="BjObMWMa2jBqmc5UA8cn-8">
                    <mxGeometry x="100" y="70" width="170" height="40" as="geometry"/>
                </mxCell>
                <mxCell id="BjObMWMa2jBqmc5UA8cn-4" value="Lane Following (LF)" style="rounded=0;whiteSpace=wrap;html=1;strokeColor=#36393d;fontFamily=Helvetica;fontSize=17;fillColor=#ffff88;fillStyle=auto;" vertex="1" parent="BjObMWMa2jBqmc5UA8cn-8">
                    <mxGeometry x="100" y="110" width="170" height="40" as="geometry"/>
                </mxCell>
                <mxCell id="BjObMWMa2jBqmc5UA8cn-5" value="BackBone" style="rounded=0;whiteSpace=wrap;html=1;strokeColor=#36393d;fontFamily=Helvetica;fontSize=17;fillColor=#ffff88;fillStyle=auto;" vertex="1" parent="BjObMWMa2jBqmc5UA8cn-8">
                    <mxGeometry x="10" y="30" width="90" height="200" as="geometry"/>
                </mxCell>
                <mxCell id="BjObMWMa2jBqmc5UA8cn-6" value="Depth Map (DM)" style="rounded=0;whiteSpace=wrap;html=1;strokeColor=#36393d;fontFamily=Helvetica;fontSize=17;fillColor=#ffff88;fillStyle=auto;" vertex="1" parent="BjObMWMa2jBqmc5UA8cn-8">
                    <mxGeometry x="100" y="150" width="170" height="40" as="geometry"/>
                </mxCell>
                <mxCell id="BjObMWMa2jBqmc5UA8cn-7" value="Objets Detection (OD)&lt;br&gt;(Optional)" style="rounded=0;whiteSpace=wrap;html=1;strokeColor=#36393d;fontFamily=Helvetica;fontSize=17;fillColor=#ffff88;fillStyle=auto;" vertex="1" parent="BjObMWMa2jBqmc5UA8cn-8">
                    <mxGeometry x="100" y="190" width="170" height="40" as="geometry"/>
                </mxCell>
                <mxCell id="BjObMWMa2jBqmc5UA8cn-12" value="" style="edgeStyle=none;html=1;entryX=0;entryY=0.5;entryDx=0;entryDy=0;" edge="1" parent="1" source="BjObMWMa2jBqmc5UA8cn-9" target="BjObMWMa2jBqmc5UA8cn-1">
                    <mxGeometry relative="1" as="geometry"/>
                </mxCell>
                <mxCell id="BjObMWMa2jBqmc5UA8cn-9" value="CAM 1" style="rounded=0;whiteSpace=wrap;html=1;fillColor=#fad7ac;strokeColor=#b46504;" vertex="1" parent="1">
                    <mxGeometry x="-60" y="-15" width="60" height="30" as="geometry"/>
                </mxCell>
                <mxCell id="BjObMWMa2jBqmc5UA8cn-23" style="edgeStyle=none;html=1;entryX=0;entryY=0.5;entryDx=0;entryDy=0;" edge="1" parent="1" source="BjObMWMa2jBqmc5UA8cn-10" target="BjObMWMa2jBqmc5UA8cn-14">
                    <mxGeometry relative="1" as="geometry"/>
                </mxCell>
                <mxCell id="BjObMWMa2jBqmc5UA8cn-10" value="CAM 2" style="rounded=0;whiteSpace=wrap;html=1;fillColor=#fad7ac;strokeColor=#b46504;" vertex="1" parent="1">
                    <mxGeometry x="-60" y="245" width="60" height="30" as="geometry"/>
                </mxCell>
                <mxCell id="BjObMWMa2jBqmc5UA8cn-13" value="" style="group" vertex="1" connectable="0" parent="1">
                    <mxGeometry x="30" y="140" width="280" height="240" as="geometry"/>
                </mxCell>
                <mxCell id="BjObMWMa2jBqmc5UA8cn-14" value="&lt;span style=&quot;font-size: 15px;&quot;&gt;Hydranet&lt;/span&gt;" style="rounded=0;whiteSpace=wrap;html=1;fillColor=#fff2cc;strokeColor=#d6b656;verticalAlign=top;labelPosition=center;verticalLabelPosition=middle;align=center;labelBackgroundColor=none;labelBorderColor=default;" vertex="1" parent="BjObMWMa2jBqmc5UA8cn-13">
                    <mxGeometry width="280" height="240" as="geometry"/>
                </mxCell>
                <mxCell id="BjObMWMa2jBqmc5UA8cn-15" value="semantic segmentation" style="rounded=0;whiteSpace=wrap;html=1;strokeColor=#36393d;fontFamily=Helvetica;fontSize=17;fillColor=#ffff88;fillStyle=auto;" vertex="1" parent="BjObMWMa2jBqmc5UA8cn-13">
                    <mxGeometry x="100" y="30" width="170" height="40" as="geometry"/>
                </mxCell>
                <mxCell id="BjObMWMa2jBqmc5UA8cn-16" value="Light Traffic (LT)" style="rounded=0;whiteSpace=wrap;html=1;strokeColor=#36393d;fontFamily=Helvetica;fontSize=17;fillColor=#ffff88;fillStyle=auto;" vertex="1" parent="BjObMWMa2jBqmc5UA8cn-13">
                    <mxGeometry x="100" y="70" width="170" height="40" as="geometry"/>
                </mxCell>
                <mxCell id="BjObMWMa2jBqmc5UA8cn-17" value="Lane Following (LF)" style="rounded=0;whiteSpace=wrap;html=1;strokeColor=#36393d;fontFamily=Helvetica;fontSize=17;fillColor=#ffff88;fillStyle=auto;" vertex="1" parent="BjObMWMa2jBqmc5UA8cn-13">
                    <mxGeometry x="100" y="110" width="170" height="40" as="geometry"/>
                </mxCell>
                <mxCell id="BjObMWMa2jBqmc5UA8cn-18" value="BackBone" style="rounded=0;whiteSpace=wrap;html=1;strokeColor=#36393d;fontFamily=Helvetica;fontSize=17;fillColor=#ffff88;fillStyle=auto;" vertex="1" parent="BjObMWMa2jBqmc5UA8cn-13">
                    <mxGeometry x="10" y="30" width="90" height="200" as="geometry"/>
                </mxCell>
                <mxCell id="BjObMWMa2jBqmc5UA8cn-19" value="Depth Map (DM)" style="rounded=0;whiteSpace=wrap;html=1;strokeColor=#36393d;fontFamily=Helvetica;fontSize=17;fillColor=#ffff88;fillStyle=auto;" vertex="1" parent="BjObMWMa2jBqmc5UA8cn-13">
                    <mxGeometry x="100" y="150" width="170" height="40" as="geometry"/>
                </mxCell>
                <mxCell id="BjObMWMa2jBqmc5UA8cn-20" value="Objets Detection (OD)&lt;br&gt;(Optional)" style="rounded=0;whiteSpace=wrap;html=1;strokeColor=#36393d;fontFamily=Helvetica;fontSize=17;fillColor=#ffff88;fillStyle=auto;" vertex="1" parent="BjObMWMa2jBqmc5UA8cn-13">
                    <mxGeometry x="100" y="190" width="170" height="40" as="geometry"/>
                </mxCell>
                <mxCell id="BjObMWMa2jBqmc5UA8cn-24" value="&lt;font style=&quot;font-size: 17px;&quot;&gt;BEV&lt;/font&gt;&lt;div&gt;&lt;font style=&quot;font-size: 17px;&quot;&gt;Transformer&lt;/font&gt;&lt;/div&gt;" style="rounded=0;whiteSpace=wrap;html=1;fillColor=#cdeb8b;strokeColor=#36393d;verticalAlign=middle;" vertex="1" parent="1">
                    <mxGeometry x="370" y="-120" width="160" height="500" as="geometry"/>
                </mxCell>
                <mxCell id="BjObMWMa2jBqmc5UA8cn-26" style="edgeStyle=orthogonalEdgeStyle;html=1;" edge="1" parent="1" source="BjObMWMa2jBqmc5UA8cn-14" target="BjObMWMa2jBqmc5UA8cn-24">
                    <mxGeometry relative="1" as="geometry"/>
                </mxCell>
                <mxCell id="BjObMWMa2jBqmc5UA8cn-27" style="edgeStyle=orthogonalEdgeStyle;html=1;" edge="1" parent="1" source="BjObMWMa2jBqmc5UA8cn-1" target="BjObMWMa2jBqmc5UA8cn-24">
                    <mxGeometry relative="1" as="geometry"/>
                </mxCell>
            </root>
        </mxGraphModel>
    </diagram>
    <diagram id="2fKaetIaqOP-L-ix0ZHV" name="Page-3">
        <mxGraphModel dx="2662" dy="1595" grid="1" gridSize="10" guides="1" tooltips="1" connect="1" arrows="1" fold="1" page="1" pageScale="1" pageWidth="850" pageHeight="1100" math="0" shadow="0">
            <root>
                <mxCell id="0"/>
                <mxCell id="1" parent="0"/>
                <mxCell id="q-9TsWOG9WebhcTh4NSf-1" value="&lt;font style=&quot;font-size: 21px;&quot;&gt;Partie GPU&lt;/font&gt;" style="rounded=0;whiteSpace=wrap;html=1;dashed=1;dashPattern=12 12;fontFamily=Helvetica;fontSize=12;fillColor=#fad9d5;strokeColor=#ae4132;verticalAlign=bottom;" parent="1" vertex="1">
                    <mxGeometry x="20" y="-520" width="700" height="340" as="geometry"/>
                </mxCell>
                <mxCell id="q-9TsWOG9WebhcTh4NSf-2" value="" style="rounded=0;whiteSpace=wrap;html=1;fillColor=#fff2cc;strokeColor=#d6b656;" parent="1" vertex="1">
                    <mxGeometry x="130" y="-510" width="150" height="320" as="geometry"/>
                </mxCell>
                <mxCell id="q-9TsWOG9WebhcTh4NSf-3" value="" style="rounded=0;whiteSpace=wrap;html=1;strokeColor=#36393d;fontFamily=Helvetica;fontSize=17;fillColor=#ffff88;fillStyle=auto;" parent="1" vertex="1">
                    <mxGeometry x="190" y="65" width="90" height="110" as="geometry"/>
                </mxCell>
                <mxCell id="q-9TsWOG9WebhcTh4NSf-4" value="" style="whiteSpace=wrap;html=1;aspect=fixed;rounded=0;strokeColor=rgb(0, 0, 0);fontFamily=Helvetica;fontSize=12;fontColor=rgb(0, 0, 0);fillColor=rgb(255, 255, 255);" parent="1" vertex="1">
                    <mxGeometry x="-652.5" y="545" width="170" height="170" as="geometry"/>
                </mxCell>
                <mxCell id="q-9TsWOG9WebhcTh4NSf-5" value="" style="ellipse;whiteSpace=wrap;html=1;rounded=0;strokeColor=rgb(0, 0, 0);fontFamily=Helvetica;fontSize=12;fontColor=rgb(0, 0, 0);fillColor=rgb(255, 255, 255);rotation=-90;" parent="1" vertex="1">
                    <mxGeometry x="-505" y="545" width="50" height="20" as="geometry"/>
                </mxCell>
                <mxCell id="q-9TsWOG9WebhcTh4NSf-6" value="" style="ellipse;whiteSpace=wrap;html=1;rounded=0;strokeColor=rgb(0, 0, 0);fontFamily=Helvetica;fontSize=12;fontColor=rgb(0, 0, 0);fillColor=rgb(255, 255, 255);rotation=-90;" parent="1" vertex="1">
                    <mxGeometry x="-505" y="695" width="50" height="20" as="geometry"/>
                </mxCell>
                <mxCell id="q-9TsWOG9WebhcTh4NSf-7" value="" style="ellipse;whiteSpace=wrap;html=1;rounded=0;strokeColor=rgb(0, 0, 0);fontFamily=Helvetica;fontSize=12;fontColor=rgb(0, 0, 0);fillColor=rgb(255, 255, 255);rotation=-90;" parent="1" vertex="1">
                    <mxGeometry x="-680" y="695" width="50" height="20" as="geometry"/>
                </mxCell>
                <mxCell id="q-9TsWOG9WebhcTh4NSf-8" value="" style="ellipse;whiteSpace=wrap;html=1;rounded=0;strokeColor=rgb(0, 0, 0);fontFamily=Helvetica;fontSize=12;fontColor=rgb(0, 0, 0);fillColor=rgb(255, 255, 255);rotation=-90;" parent="1" vertex="1">
                    <mxGeometry x="-680" y="545" width="50" height="20" as="geometry"/>
                </mxCell>
                <mxCell id="q-9TsWOG9WebhcTh4NSf-9" style="edgeStyle=orthogonalEdgeStyle;rounded=1;html=1;exitX=1;exitY=0.5;exitDx=0;exitDy=0;entryX=0;entryY=0.25;entryDx=0;entryDy=0;fontFamily=Helvetica;fontSize=17;fontColor=rgb(0, 0, 0);" parent="1" source="q-9TsWOG9WebhcTh4NSf-10" target="q-9TsWOG9WebhcTh4NSf-25" edge="1">
                    <mxGeometry relative="1" as="geometry">
                        <Array as="points">
                            <mxPoint x="320" y="90"/>
                            <mxPoint x="320" y="89"/>
                        </Array>
                    </mxGeometry>
                </mxCell>
                <mxCell id="q-9TsWOG9WebhcTh4NSf-10" value="2D-3D&lt;br&gt;CAM" style="rounded=0;whiteSpace=wrap;html=1;fillColor=#cdeb8b;strokeColor=#36393d;" parent="1" vertex="1">
                    <mxGeometry x="200" y="75" width="60" height="30" as="geometry"/>
                </mxCell>
                <mxCell id="q-9TsWOG9WebhcTh4NSf-11" value="" style="edgeStyle=none;html=1;entryX=0;entryY=0.5;entryDx=0;entryDy=0;" parent="1" source="q-9TsWOG9WebhcTh4NSf-12" target="q-9TsWOG9WebhcTh4NSf-22" edge="1">
                    <mxGeometry relative="1" as="geometry"/>
                </mxCell>
                <mxCell id="q-9TsWOG9WebhcTh4NSf-12" value="CAM 1" style="rounded=0;whiteSpace=wrap;html=1;fillColor=#fad7ac;strokeColor=#b46504;" parent="1" vertex="1">
                    <mxGeometry y="75" width="60" height="30" as="geometry"/>
                </mxCell>
                <mxCell id="q-9TsWOG9WebhcTh4NSf-13" value="" style="edgeStyle=none;html=1;entryX=0;entryY=0.5;entryDx=0;entryDy=0;" parent="1" source="q-9TsWOG9WebhcTh4NSf-14" target="q-9TsWOG9WebhcTh4NSf-19" edge="1">
                    <mxGeometry relative="1" as="geometry"/>
                </mxCell>
                <mxCell id="q-9TsWOG9WebhcTh4NSf-14" value="CAM 2" style="rounded=0;whiteSpace=wrap;html=1;fillColor=#fad7ac;strokeColor=#b46504;" parent="1" vertex="1">
                    <mxGeometry y="135" width="60" height="30" as="geometry"/>
                </mxCell>
                <mxCell id="q-9TsWOG9WebhcTh4NSf-15" style="edgeStyle=orthogonalEdgeStyle;html=1;entryX=0;entryY=0.75;entryDx=0;entryDy=0;fontFamily=Helvetica;fontSize=17;fontColor=rgb(0, 0, 0);rounded=1;exitX=1;exitY=0.5;exitDx=0;exitDy=0;" parent="1" source="q-9TsWOG9WebhcTh4NSf-16" target="q-9TsWOG9WebhcTh4NSf-25" edge="1">
                    <mxGeometry relative="1" as="geometry">
                        <Array as="points">
                            <mxPoint x="320" y="150"/>
                            <mxPoint x="320" y="156"/>
                            <mxPoint x="380" y="156"/>
                        </Array>
                    </mxGeometry>
                </mxCell>
                <mxCell id="q-9TsWOG9WebhcTh4NSf-16" value="2D-3D&lt;br&gt;CAM" style="rounded=0;whiteSpace=wrap;html=1;fillColor=#cdeb8b;strokeColor=#36393d;" parent="1" vertex="1">
                    <mxGeometry x="200" y="135" width="60" height="30" as="geometry"/>
                </mxCell>
                <mxCell id="q-9TsWOG9WebhcTh4NSf-17" style="edgeStyle=none;html=1;entryX=0;entryY=0.5;entryDx=0;entryDy=0;fontFamily=Helvetica;fontSize=12;fontColor=rgb(0, 0, 0);exitX=1;exitY=0.5;exitDx=0;exitDy=0;" parent="1" source="q-9TsWOG9WebhcTh4NSf-19" target="q-9TsWOG9WebhcTh4NSf-16" edge="1">
                    <mxGeometry relative="1" as="geometry"/>
                </mxCell>
                <mxCell id="q-9TsWOG9WebhcTh4NSf-18" style="edgeStyle=orthogonalEdgeStyle;rounded=1;html=1;exitX=1;exitY=0.5;exitDx=0;exitDy=0;entryX=0;entryY=0.75;entryDx=0;entryDy=0;fontFamily=Helvetica;fontSize=17;fontColor=rgb(0, 0, 0);" parent="1" source="q-9TsWOG9WebhcTh4NSf-19" target="q-9TsWOG9WebhcTh4NSf-25" edge="1">
                    <mxGeometry relative="1" as="geometry">
                        <Array as="points">
                            <mxPoint x="180" y="150"/>
                            <mxPoint x="180" y="185"/>
                            <mxPoint x="320" y="185"/>
                            <mxPoint x="320" y="156"/>
                        </Array>
                    </mxGeometry>
                </mxCell>
                <mxCell id="q-9TsWOG9WebhcTh4NSf-19" value="CAM processing" style="rounded=0;whiteSpace=wrap;html=1;fillColor=#fad9d5;strokeColor=#ae4132;" parent="1" vertex="1">
                    <mxGeometry x="95" y="135" width="70" height="30" as="geometry"/>
                </mxCell>
                <mxCell id="q-9TsWOG9WebhcTh4NSf-20" style="edgeStyle=none;html=1;entryX=0;entryY=0.5;entryDx=0;entryDy=0;fontFamily=Helvetica;fontSize=12;fontColor=rgb(0, 0, 0);exitX=1;exitY=0.5;exitDx=0;exitDy=0;" parent="1" source="q-9TsWOG9WebhcTh4NSf-22" target="q-9TsWOG9WebhcTh4NSf-10" edge="1">
                    <mxGeometry relative="1" as="geometry"/>
                </mxCell>
                <mxCell id="q-9TsWOG9WebhcTh4NSf-21" style="edgeStyle=orthogonalEdgeStyle;html=1;exitX=1;exitY=0.5;exitDx=0;exitDy=0;fontFamily=Helvetica;fontSize=17;fontColor=rgb(0, 0, 0);entryX=0;entryY=0.25;entryDx=0;entryDy=0;" parent="1" source="q-9TsWOG9WebhcTh4NSf-22" target="q-9TsWOG9WebhcTh4NSf-25" edge="1">
                    <mxGeometry relative="1" as="geometry">
                        <Array as="points">
                            <mxPoint x="180" y="90"/>
                            <mxPoint x="180" y="55"/>
                            <mxPoint x="320" y="55"/>
                            <mxPoint x="320" y="89"/>
                            <mxPoint x="400" y="89"/>
                        </Array>
                    </mxGeometry>
                </mxCell>
                <mxCell id="q-9TsWOG9WebhcTh4NSf-22" value="CAM processing" style="rounded=0;whiteSpace=wrap;html=1;fillColor=#fad9d5;strokeColor=#ae4132;" parent="1" vertex="1">
                    <mxGeometry x="95" y="75" width="70" height="30" as="geometry"/>
                </mxCell>
                <mxCell id="q-9TsWOG9WebhcTh4NSf-23" value="2D to 2.5D" style="text;html=1;align=center;verticalAlign=middle;resizable=0;points=[];autosize=1;strokeColor=none;fillColor=none;fontSize=12;fontFamily=Helvetica;fontColor=rgb(0, 0, 0);" parent="1" vertex="1">
                    <mxGeometry x="190" y="105" width="80" height="30" as="geometry"/>
                </mxCell>
                <mxCell id="q-9TsWOG9WebhcTh4NSf-24" style="edgeStyle=none;html=1;fontFamily=Helvetica;fontSize=17;fontColor=rgb(0, 0, 0);" parent="1" source="q-9TsWOG9WebhcTh4NSf-25" target="q-9TsWOG9WebhcTh4NSf-26" edge="1">
                    <mxGeometry relative="1" as="geometry"/>
                </mxCell>
                <mxCell id="q-9TsWOG9WebhcTh4NSf-25" value="&lt;font style=&quot;font-size: 17px;&quot;&gt;Transformer&lt;/font&gt;" style="rounded=0;whiteSpace=wrap;html=1;fillColor=#cdeb8b;strokeColor=#36393d;verticalAlign=top;" parent="1" vertex="1">
                    <mxGeometry x="400" y="55" width="100" height="135" as="geometry"/>
                </mxCell>
                <mxCell id="q-9TsWOG9WebhcTh4NSf-26" value="&lt;font style=&quot;font-size: 17px;&quot;&gt;Controler&lt;/font&gt;" style="rounded=0;whiteSpace=wrap;html=1;fillColor=#cce5ff;strokeColor=#36393d;verticalAlign=top;" parent="1" vertex="1">
                    <mxGeometry x="560" y="-10" width="100" height="260" as="geometry"/>
                </mxCell>
                <mxCell id="q-9TsWOG9WebhcTh4NSf-27" value="&lt;font style=&quot;font-size: 17px;&quot;&gt;PID&lt;/font&gt;" style="rounded=0;whiteSpace=wrap;html=1;fillColor=#cce5ff;strokeColor=#36393d;" parent="1" vertex="1">
                    <mxGeometry x="560" y="215" width="100" height="35" as="geometry"/>
                </mxCell>
                <mxCell id="q-9TsWOG9WebhcTh4NSf-28" value="&lt;font style=&quot;font-size: 17px;&quot;&gt;Speed protection&lt;/font&gt;" style="rounded=0;whiteSpace=wrap;html=1;fillColor=#cce5ff;strokeColor=#36393d;" parent="1" vertex="1">
                    <mxGeometry x="560" y="170" width="100" height="45" as="geometry"/>
                </mxCell>
                <mxCell id="q-9TsWOG9WebhcTh4NSf-29" value="Goal :&amp;nbsp;&lt;br&gt;&lt;span style=&quot;white-space: pre;&quot;&gt;&#x9;&lt;/span&gt;- Faire un petit robot autonome avec une trajectoire définie par GPS.&lt;br&gt;&lt;span style=&quot;white-space: pre;&quot;&gt;&#x9;&lt;/span&gt;- Effectuer le déplacement uniquement sur les passage et route piétons ou piste &lt;span style=&quot;white-space: pre;&quot;&gt;&#x9;&amp;nbsp;&lt;/span&gt;&amp;nbsp;cycliste.&lt;br&gt;&lt;br&gt;Contrainte :&amp;nbsp;&lt;br&gt;&lt;span style=&quot;white-space: pre;&quot;&gt;&#x9;&lt;/span&gt;- Faible puissance A déterminer&lt;br&gt;&lt;span style=&quot;white-space: pre;&quot;&gt;&#x9;&lt;/span&gt;- Suivie sur les passage pedestre, feux tricolores, passage piéton etc&lt;br&gt;&lt;span style=&quot;white-space: pre;&quot;&gt;&#x9;&lt;/span&gt;- Trajectoire faite par point GPS&lt;br&gt;&lt;br&gt;Equipements :&amp;nbsp;&lt;br&gt;&lt;span style=&quot;white-space: pre;&quot;&gt;&#x9;&lt;/span&gt;- 1 Carte SocGPU ou SocFPGA&lt;br&gt;&lt;span style=&quot;white-space: pre;&quot;&gt;&#x9;&lt;/span&gt;- GPS&lt;br&gt;&lt;span style=&quot;white-space: pre;&quot;&gt;&#x9;&lt;/span&gt;- Camera&amp;nbsp;&lt;br&gt;&lt;span style=&quot;white-space: pre;&quot;&gt;&#x9;&lt;/span&gt;- Radar&amp;nbsp;" style="rounded=0;whiteSpace=wrap;html=1;strokeColor=rgb(0, 0, 0);fontFamily=Helvetica;fontSize=17;fontColor=rgb(0, 0, 0);fillColor=rgb(255, 255, 255);labelPosition=center;verticalLabelPosition=middle;align=left;verticalAlign=top;textDirection=ltr;" parent="1" vertex="1">
                    <mxGeometry x="-870" y="-10" width="660" height="360" as="geometry"/>
                </mxCell>
                <mxCell id="q-9TsWOG9WebhcTh4NSf-30" style="edgeStyle=none;html=1;exitX=0;exitY=0.5;exitDx=0;exitDy=0;" parent="1" source="q-9TsWOG9WebhcTh4NSf-31" edge="1">
                    <mxGeometry relative="1" as="geometry">
                        <mxPoint x="-720" y="260" as="targetPoint"/>
                    </mxGeometry>
                </mxCell>
                <mxCell id="q-9TsWOG9WebhcTh4NSf-31" value="CAM" style="triangle;whiteSpace=wrap;html=1;rounded=0;strokeColor=rgb(0, 0, 0);fontFamily=Helvetica;fontSize=12;fontColor=rgb(0, 0, 0);fillColor=rgb(255, 255, 255);rotation=75;" parent="1" vertex="1">
                    <mxGeometry x="-680" y="390" width="72.5" height="245.31" as="geometry"/>
                </mxCell>
                <mxCell id="q-9TsWOG9WebhcTh4NSf-32" style="edgeStyle=none;html=1;exitX=0;exitY=0.5;exitDx=0;exitDy=0;" parent="1" source="q-9TsWOG9WebhcTh4NSf-33" edge="1">
                    <mxGeometry relative="1" as="geometry">
                        <mxPoint x="-420" y="270" as="targetPoint"/>
                    </mxGeometry>
                </mxCell>
                <mxCell id="q-9TsWOG9WebhcTh4NSf-33" value="CAM" style="triangle;whiteSpace=wrap;html=1;rounded=0;strokeColor=rgb(0, 0, 0);fontFamily=Helvetica;fontSize=12;fontColor=rgb(0, 0, 0);fillColor=rgb(255, 255, 255);rotation=105;" parent="1" vertex="1">
                    <mxGeometry x="-530" y="390" width="72.5" height="245.31" as="geometry"/>
                </mxCell>
                <mxCell id="q-9TsWOG9WebhcTh4NSf-34" value="CAM" style="triangle;whiteSpace=wrap;html=1;rounded=0;strokeColor=rgb(0, 0, 0);fontFamily=Helvetica;fontSize=12;fontColor=rgb(0, 0, 0);fillColor=rgb(255, 255, 255);rotation=-180;" parent="1" vertex="1">
                    <mxGeometry x="-482.5" y="507.35" width="72.5" height="245.31" as="geometry"/>
                </mxCell>
                <mxCell id="q-9TsWOG9WebhcTh4NSf-35" value="CAM" style="triangle;whiteSpace=wrap;html=1;rounded=0;strokeColor=rgb(0, 0, 0);fontFamily=Helvetica;fontSize=12;fontColor=rgb(0, 0, 0);fillColor=rgb(255, 255, 255);rotation=0;" parent="1" vertex="1">
                    <mxGeometry x="-725" y="507.35" width="72.5" height="245.31" as="geometry"/>
                </mxCell>
                <mxCell id="q-9TsWOG9WebhcTh4NSf-36" value="CAM" style="triangle;whiteSpace=wrap;html=1;rounded=0;strokeColor=rgb(0, 0, 0);fontFamily=Helvetica;fontSize=12;fontColor=rgb(0, 0, 0);fillColor=rgb(255, 255, 255);rotation=-75;" parent="1" vertex="1">
                    <mxGeometry x="-652.5" y="630" width="72.5" height="245.31" as="geometry"/>
                </mxCell>
                <mxCell id="q-9TsWOG9WebhcTh4NSf-37" value="CAM" style="triangle;whiteSpace=wrap;html=1;rounded=0;strokeColor=rgb(0, 0, 0);fontFamily=Helvetica;fontSize=12;fontColor=rgb(0, 0, 0);fillColor=rgb(255, 255, 255);rotation=-105;" parent="1" vertex="1">
                    <mxGeometry x="-555" y="630" width="72.5" height="245.31" as="geometry"/>
                </mxCell>
                <mxCell id="q-9TsWOG9WebhcTh4NSf-38" value="Simulation dans carla :&amp;nbsp;&lt;br&gt;&lt;span style=&quot;&quot;&gt;&#x9;&lt;/span&gt;&lt;span style=&quot;&quot;&gt;&#x9;&lt;/span&gt;- Simulation system GPS et IMU ok&lt;br&gt;&lt;span style=&quot;&quot;&gt;&#x9;&lt;/span&gt;&lt;span style=&quot;&quot;&gt;&#x9;&lt;/span&gt;- Simulation de google map avec des waypoints sur la map&lt;br&gt;&lt;span style=&quot;&quot;&gt;&#x9;&lt;/span&gt;- Simulation des camera ok&lt;br&gt;&lt;span style=&quot;&quot;&gt;&#x9;&lt;/span&gt;- passer que sur des trajectoire sur les passages&amp;nbsp;&lt;span style=&quot;background-color: initial;&quot;&gt;pédestre&lt;/span&gt;&lt;br&gt;&lt;span style=&quot;&quot;&gt;&#x9;&lt;/span&gt;- Détecton obstacle&amp;nbsp;&lt;br&gt;&lt;span style=&quot;&quot;&gt;&#x9;&lt;/span&gt;- Détection route endommagé&amp;nbsp;&lt;br&gt;&lt;br&gt;Simulation en premier manuelle de qlq heure de simulation à qlq jour.&lt;br&gt;&lt;span style=&quot;white-space: pre;&quot;&gt;&#x9;&lt;/span&gt;- sauvegarder les données.&lt;br&gt;Puis simulation superviser avec détetion d&#39;obstacle et dépassement.&lt;br&gt;&lt;span style=&quot;&quot;&gt;&#x9;&lt;/span&gt;" style="rounded=0;whiteSpace=wrap;html=1;strokeColor=rgb(0, 0, 0);fontFamily=Helvetica;fontSize=17;fontColor=rgb(0, 0, 0);fillColor=rgb(255, 255, 255);labelPosition=center;verticalLabelPosition=middle;align=left;verticalAlign=top;textDirection=ltr;" parent="1" vertex="1">
                    <mxGeometry x="-870" y="-305" width="660" height="270" as="geometry"/>
                </mxCell>
                <mxCell id="q-9TsWOG9WebhcTh4NSf-39" value="" style="rounded=0;whiteSpace=wrap;html=1;strokeColor=#36393d;fontFamily=Helvetica;fontSize=17;fillColor=#ffff88;fillStyle=auto;" parent="1" vertex="1">
                    <mxGeometry x="150" y="-338.75" width="110" height="103.75" as="geometry"/>
                </mxCell>
                <mxCell id="q-9TsWOG9WebhcTh4NSf-40" value="" style="edgeStyle=none;html=1;entryX=0;entryY=0.5;entryDx=0;entryDy=0;" parent="1" source="q-9TsWOG9WebhcTh4NSf-41" target="q-9TsWOG9WebhcTh4NSf-47" edge="1">
                    <mxGeometry relative="1" as="geometry"/>
                </mxCell>
                <mxCell id="q-9TsWOG9WebhcTh4NSf-41" value="CAM 1" style="rounded=0;whiteSpace=wrap;html=1;fillColor=#fad7ac;strokeColor=#b46504;" parent="1" vertex="1">
                    <mxGeometry x="-60" y="-458.75" width="60" height="30" as="geometry"/>
                </mxCell>
                <mxCell id="q-9TsWOG9WebhcTh4NSf-42" value="" style="edgeStyle=none;html=1;entryX=0;entryY=0.5;entryDx=0;entryDy=0;" parent="1" source="q-9TsWOG9WebhcTh4NSf-43" target="q-9TsWOG9WebhcTh4NSf-45" edge="1">
                    <mxGeometry relative="1" as="geometry"/>
                </mxCell>
                <mxCell id="q-9TsWOG9WebhcTh4NSf-43" value="CAM 2" style="rounded=0;whiteSpace=wrap;html=1;fillColor=#fad7ac;strokeColor=#b46504;" parent="1" vertex="1">
                    <mxGeometry x="-60" y="-303.75" width="60" height="30" as="geometry"/>
                </mxCell>
                <mxCell id="q-9TsWOG9WebhcTh4NSf-44" style="edgeStyle=none;html=1;fontFamily=Helvetica;fontSize=12;fontColor=rgb(0, 0, 0);exitX=1;exitY=0.5;exitDx=0;exitDy=0;entryX=0;entryY=0.5;entryDx=0;entryDy=0;" parent="1" source="q-9TsWOG9WebhcTh4NSf-45" target="q-9TsWOG9WebhcTh4NSf-55" edge="1">
                    <mxGeometry relative="1" as="geometry">
                        <mxPoint x="130" y="-290" as="targetPoint"/>
                    </mxGeometry>
                </mxCell>
                <mxCell id="q-9TsWOG9WebhcTh4NSf-45" value="CAM processing" style="rounded=0;whiteSpace=wrap;html=1;fillColor=#fad9d5;strokeColor=#ae4132;" parent="1" vertex="1">
                    <mxGeometry x="35" y="-303.75" width="70" height="30" as="geometry"/>
                </mxCell>
                <mxCell id="q-9TsWOG9WebhcTh4NSf-46" style="edgeStyle=none;html=1;entryX=0;entryY=0.5;entryDx=0;entryDy=0;fontFamily=Helvetica;fontSize=12;fontColor=rgb(0, 0, 0);exitX=1;exitY=0.5;exitDx=0;exitDy=0;" parent="1" source="q-9TsWOG9WebhcTh4NSf-47" target="q-9TsWOG9WebhcTh4NSf-60" edge="1">
                    <mxGeometry relative="1" as="geometry">
                        <mxPoint x="130" y="-442.5" as="targetPoint"/>
                    </mxGeometry>
                </mxCell>
                <mxCell id="q-9TsWOG9WebhcTh4NSf-47" value="CAM processing" style="rounded=0;whiteSpace=wrap;html=1;fillColor=#fad9d5;strokeColor=#ae4132;" parent="1" vertex="1">
                    <mxGeometry x="35" y="-458.75" width="70" height="30" as="geometry"/>
                </mxCell>
                <mxCell id="q-9TsWOG9WebhcTh4NSf-48" style="edgeStyle=orthogonalEdgeStyle;html=1;entryX=0;entryY=0.5;entryDx=0;entryDy=0;" parent="1" source="q-9TsWOG9WebhcTh4NSf-49" target="q-9TsWOG9WebhcTh4NSf-77" edge="1">
                    <mxGeometry relative="1" as="geometry"/>
                </mxCell>
                <mxCell id="q-9TsWOG9WebhcTh4NSf-49" value="&lt;font style=&quot;font-size: 17px;&quot;&gt;Transformer&lt;br&gt;Vision&lt;br&gt;&lt;/font&gt;" style="rounded=0;whiteSpace=wrap;html=1;fillColor=#cdeb8b;strokeColor=#36393d;verticalAlign=top;" parent="1" vertex="1">
                    <mxGeometry x="310" y="-490" width="160" height="250" as="geometry"/>
                </mxCell>
                <mxCell id="q-9TsWOG9WebhcTh4NSf-50" value="&lt;font style=&quot;font-size: 17px;&quot;&gt;Controler&lt;/font&gt;" style="rounded=0;whiteSpace=wrap;html=1;fillColor=#cce5ff;strokeColor=#36393d;verticalAlign=top;" parent="1" vertex="1">
                    <mxGeometry x="810" y="-675" width="100" height="250" as="geometry"/>
                </mxCell>
                <mxCell id="q-9TsWOG9WebhcTh4NSf-51" value="&lt;font style=&quot;font-size: 17px;&quot;&gt;PID&lt;/font&gt;" style="rounded=0;whiteSpace=wrap;html=1;fillColor=#cce5ff;strokeColor=#36393d;" parent="1" vertex="1">
                    <mxGeometry x="810" y="-468.13" width="100" height="43.13" as="geometry"/>
                </mxCell>
                <mxCell id="q-9TsWOG9WebhcTh4NSf-52" value="&lt;font style=&quot;font-size: 17px;&quot;&gt;Speed protection&lt;/font&gt;" style="rounded=0;whiteSpace=wrap;html=1;fillColor=#cce5ff;strokeColor=#36393d;" parent="1" vertex="1">
                    <mxGeometry x="810" y="-513.13" width="100" height="45" as="geometry"/>
                </mxCell>
                <mxCell id="q-9TsWOG9WebhcTh4NSf-53" value="Classifier" style="rounded=0;whiteSpace=wrap;html=1;strokeColor=#36393d;fontFamily=Helvetica;fontSize=17;fillColor=#ffff88;fillStyle=auto;" parent="1" vertex="1">
                    <mxGeometry x="150" y="-272.5" width="110" height="37.5" as="geometry"/>
                </mxCell>
                <mxCell id="q-9TsWOG9WebhcTh4NSf-54" style="edgeStyle=orthogonalEdgeStyle;html=1;exitX=1;exitY=0.5;exitDx=0;exitDy=0;entryX=0;entryY=0.75;entryDx=0;entryDy=0;" parent="1" source="q-9TsWOG9WebhcTh4NSf-55" target="q-9TsWOG9WebhcTh4NSf-49" edge="1">
                    <mxGeometry relative="1" as="geometry"/>
                </mxCell>
                <mxCell id="q-9TsWOG9WebhcTh4NSf-55" value="Depth map" style="rounded=0;whiteSpace=wrap;html=1;strokeColor=#36393d;fontFamily=Helvetica;fontSize=17;fillColor=#ffff88;fillStyle=auto;" parent="1" vertex="1">
                    <mxGeometry x="150" y="-307.5" width="110" height="37.5" as="geometry"/>
                </mxCell>
                <mxCell id="q-9TsWOG9WebhcTh4NSf-56" value="segmentation" style="rounded=0;whiteSpace=wrap;html=1;strokeColor=#36393d;fontFamily=Helvetica;fontSize=17;fillColor=#ffff88;fillStyle=auto;" parent="1" vertex="1">
                    <mxGeometry x="150" y="-345" width="110" height="37.5" as="geometry"/>
                </mxCell>
                <mxCell id="q-9TsWOG9WebhcTh4NSf-57" value="" style="rounded=0;whiteSpace=wrap;html=1;strokeColor=#36393d;fontFamily=Helvetica;fontSize=17;fillColor=#ffff88;fillStyle=auto;" parent="1" vertex="1">
                    <mxGeometry x="150" y="-493.75" width="110" height="103.75" as="geometry"/>
                </mxCell>
                <mxCell id="q-9TsWOG9WebhcTh4NSf-58" value="Classifier" style="rounded=0;whiteSpace=wrap;html=1;strokeColor=#36393d;fontFamily=Helvetica;fontSize=17;fillColor=#ffff88;fillStyle=auto;" parent="1" vertex="1">
                    <mxGeometry x="150" y="-427.5" width="110" height="37.5" as="geometry"/>
                </mxCell>
                <mxCell id="q-9TsWOG9WebhcTh4NSf-59" style="edgeStyle=orthogonalEdgeStyle;html=1;exitX=1;exitY=0.5;exitDx=0;exitDy=0;entryX=0;entryY=0.25;entryDx=0;entryDy=0;" parent="1" source="q-9TsWOG9WebhcTh4NSf-60" target="q-9TsWOG9WebhcTh4NSf-49" edge="1">
                    <mxGeometry relative="1" as="geometry"/>
                </mxCell>
                <mxCell id="q-9TsWOG9WebhcTh4NSf-60" value="Depth map" style="rounded=0;whiteSpace=wrap;html=1;strokeColor=#36393d;fontFamily=Helvetica;fontSize=17;fillColor=#ffff88;fillStyle=auto;" parent="1" vertex="1">
                    <mxGeometry x="150" y="-462.5" width="110" height="37.5" as="geometry"/>
                </mxCell>
                <mxCell id="q-9TsWOG9WebhcTh4NSf-61" value="segmentation" style="rounded=0;whiteSpace=wrap;html=1;strokeColor=#36393d;fontFamily=Helvetica;fontSize=17;fillColor=#ffff88;fillStyle=auto;" parent="1" vertex="1">
                    <mxGeometry x="150" y="-500" width="110" height="37.5" as="geometry"/>
                </mxCell>
                <mxCell id="q-9TsWOG9WebhcTh4NSf-62" style="edgeStyle=orthogonalEdgeStyle;html=1;entryX=0;entryY=0.5;entryDx=0;entryDy=0;" parent="1" source="q-9TsWOG9WebhcTh4NSf-77" target="q-9TsWOG9WebhcTh4NSf-50" edge="1">
                    <mxGeometry relative="1" as="geometry"/>
                </mxCell>
                <mxCell id="q-9TsWOG9WebhcTh4NSf-63" value="" style="edgeStyle=orthogonalEdgeStyle;html=1;" parent="1" source="q-9TsWOG9WebhcTh4NSf-64" target="q-9TsWOG9WebhcTh4NSf-67" edge="1">
                    <mxGeometry relative="1" as="geometry"/>
                </mxCell>
                <mxCell id="q-9TsWOG9WebhcTh4NSf-64" value="GPS" style="rounded=0;whiteSpace=wrap;html=1;fillColor=#fad7ac;strokeColor=#b46504;" parent="1" vertex="1">
                    <mxGeometry x="230" y="-680.13" width="70" height="45" as="geometry"/>
                </mxCell>
                <mxCell id="q-9TsWOG9WebhcTh4NSf-65" style="edgeStyle=orthogonalEdgeStyle;html=1;" parent="1" source="q-9TsWOG9WebhcTh4NSf-67" edge="1">
                    <mxGeometry relative="1" as="geometry">
                        <mxPoint x="810" y="-610" as="targetPoint"/>
                        <Array as="points">
                            <mxPoint x="750" y="-660"/>
                            <mxPoint x="750" y="-610"/>
                        </Array>
                    </mxGeometry>
                </mxCell>
                <mxCell id="q-9TsWOG9WebhcTh4NSf-66" style="edgeStyle=orthogonalEdgeStyle;html=1;entryX=0.25;entryY=0;entryDx=0;entryDy=0;" parent="1" source="q-9TsWOG9WebhcTh4NSf-67" target="q-9TsWOG9WebhcTh4NSf-77" edge="1">
                    <mxGeometry relative="1" as="geometry">
                        <mxPoint x="580" y="-600" as="targetPoint"/>
                        <Array as="points">
                            <mxPoint x="570" y="-660"/>
                        </Array>
                    </mxGeometry>
                </mxCell>
                <mxCell id="q-9TsWOG9WebhcTh4NSf-67" value="&lt;font style=&quot;font-size: 17px;&quot;&gt;processing GPS&lt;/font&gt;" style="rounded=0;whiteSpace=wrap;html=1;fillColor=#cce5ff;strokeColor=#36393d;" parent="1" vertex="1">
                    <mxGeometry x="325" y="-680.13" width="100" height="45" as="geometry"/>
                </mxCell>
                <mxCell id="q-9TsWOG9WebhcTh4NSf-68" value="" style="edgeStyle=orthogonalEdgeStyle;html=1;" parent="1" source="q-9TsWOG9WebhcTh4NSf-69" target="q-9TsWOG9WebhcTh4NSf-72" edge="1">
                    <mxGeometry relative="1" as="geometry"/>
                </mxCell>
                <mxCell id="q-9TsWOG9WebhcTh4NSf-69" value="Google map" style="rounded=0;whiteSpace=wrap;html=1;fillColor=#fad7ac;strokeColor=#b46504;" parent="1" vertex="1">
                    <mxGeometry x="230" y="-613" width="70" height="45" as="geometry"/>
                </mxCell>
                <mxCell id="q-9TsWOG9WebhcTh4NSf-70" style="edgeStyle=orthogonalEdgeStyle;html=1;exitX=1;exitY=0.5;exitDx=0;exitDy=0;entryX=-0.003;entryY=0.398;entryDx=0;entryDy=0;entryPerimeter=0;" parent="1" source="q-9TsWOG9WebhcTh4NSf-72" target="q-9TsWOG9WebhcTh4NSf-50" edge="1">
                    <mxGeometry relative="1" as="geometry">
                        <Array as="points">
                            <mxPoint x="425" y="-590"/>
                            <mxPoint x="750" y="-590"/>
                            <mxPoint x="750" y="-576"/>
                        </Array>
                    </mxGeometry>
                </mxCell>
                <mxCell id="q-9TsWOG9WebhcTh4NSf-71" style="edgeStyle=orthogonalEdgeStyle;html=1;exitX=1;exitY=0.5;exitDx=0;exitDy=0;entryX=0.75;entryY=0;entryDx=0;entryDy=0;" parent="1" source="q-9TsWOG9WebhcTh4NSf-72" target="q-9TsWOG9WebhcTh4NSf-77" edge="1">
                    <mxGeometry relative="1" as="geometry">
                        <Array as="points">
                            <mxPoint x="650" y="-591"/>
                        </Array>
                    </mxGeometry>
                </mxCell>
                <mxCell id="q-9TsWOG9WebhcTh4NSf-72" value="&lt;span style=&quot;font-size: 17px;&quot;&gt;processing&amp;nbsp;&lt;br&gt;waypoints&lt;br&gt;&lt;/span&gt;" style="rounded=0;whiteSpace=wrap;html=1;fillColor=#cce5ff;strokeColor=#36393d;" parent="1" vertex="1">
                    <mxGeometry x="325" y="-613" width="100" height="45" as="geometry"/>
                </mxCell>
                <mxCell id="q-9TsWOG9WebhcTh4NSf-73" value="&lt;font style=&quot;font-size: 17px;&quot;&gt;waypoints manager&lt;/font&gt;" style="rounded=0;whiteSpace=wrap;html=1;fillColor=#cce5ff;strokeColor=#36393d;" parent="1" vertex="1">
                    <mxGeometry x="810" y="-558.13" width="100" height="45" as="geometry"/>
                </mxCell>
                <mxCell id="q-9TsWOG9WebhcTh4NSf-74" value="&lt;font style=&quot;font-size: 17px;&quot;&gt;sensor manager&lt;/font&gt;" style="rounded=0;whiteSpace=wrap;html=1;fillColor=#cce5ff;strokeColor=#36393d;" parent="1" vertex="1">
                    <mxGeometry x="810" y="-603.13" width="100" height="45" as="geometry"/>
                </mxCell>
                <mxCell id="q-9TsWOG9WebhcTh4NSf-75" value="modèle pré entraîner &lt;br&gt;ou bien CNN" style="text;html=1;align=center;verticalAlign=middle;resizable=0;points=[];autosize=1;strokeColor=none;fillColor=none;" parent="1" vertex="1">
                    <mxGeometry x="140" y="-230" width="130" height="40" as="geometry"/>
                </mxCell>
                <mxCell id="q-9TsWOG9WebhcTh4NSf-76" value="" style="group" parent="1" vertex="1" connectable="0">
                    <mxGeometry x="530" y="-490" width="160" height="250" as="geometry"/>
                </mxCell>
                <mxCell id="q-9TsWOG9WebhcTh4NSf-77" value="&lt;font style=&quot;font-size: 17px;&quot;&gt;Transformer&lt;br&gt;motion&lt;br&gt;&lt;/font&gt;" style="rounded=0;whiteSpace=wrap;html=1;fillColor=#CDEB8B;strokeColor=#36393d;verticalAlign=top;" parent="q-9TsWOG9WebhcTh4NSf-76" vertex="1">
                    <mxGeometry width="160" height="250" as="geometry"/>
                </mxCell>
                <mxCell id="q-9TsWOG9WebhcTh4NSf-78" value="&lt;font style=&quot;font-size: 17px;&quot;&gt;waypoints&lt;br&gt;projection&lt;br&gt;&lt;/font&gt;" style="rounded=0;whiteSpace=wrap;html=1;fillColor=#CDEB8B;strokeColor=#36393d;" parent="q-9TsWOG9WebhcTh4NSf-76" vertex="1">
                    <mxGeometry x="60" y="70" width="100" height="45" as="geometry"/>
                </mxCell>
                <mxCell id="q-9TsWOG9WebhcTh4NSf-79" value="&lt;font style=&quot;font-size: 17px;&quot;&gt;trajectory prediction&lt;/font&gt;" style="rounded=0;whiteSpace=wrap;html=1;fillColor=#CDEB8B;strokeColor=#000000;" parent="q-9TsWOG9WebhcTh4NSf-76" vertex="1">
                    <mxGeometry x="60" y="115" width="100" height="45" as="geometry"/>
                </mxCell>
                <mxCell id="q-9TsWOG9WebhcTh4NSf-80" value="&lt;font style=&quot;font-size: 17px;&quot;&gt;Warning prediction&lt;/font&gt;" style="rounded=0;whiteSpace=wrap;html=1;fillColor=#CDEB8B;strokeColor=#000000;" parent="q-9TsWOG9WebhcTh4NSf-76" vertex="1">
                    <mxGeometry x="60" y="160" width="100" height="45" as="geometry"/>
                </mxCell>
                <mxCell id="q-9TsWOG9WebhcTh4NSf-81" value="&lt;span style=&quot;font-size: 17px;&quot;&gt;motor manager&lt;/span&gt;" style="rounded=0;whiteSpace=wrap;html=1;fillColor=#CDEB8B;strokeColor=#000000;" parent="q-9TsWOG9WebhcTh4NSf-76" vertex="1">
                    <mxGeometry x="60" y="205" width="100" height="45" as="geometry"/>
                </mxCell>
            </root>
        </mxGraphModel>
    </diagram>
</mxfile>